# xmcd
#
# Track frame offsets:
#	150
#	15127
#	30580
#	43651
#	57482
#	70893
#	85141
#	98234
#	111158
#	124134
#	136944
#	152025
#	166327
#	178446
#	191697
#	205106
#	217811
#	233701
#	249556
#	261725
#	275770
#	287159
#	301070
#
# Disc length: 4211 seconds
#
# Revision: 2
# Processed by: cddbd v1.5.2PL0 Copyright (c) Steve Scherf et al.
# Submitted via: audiograbber 1.83.01
#
DISCID=4e107117
DTITLE=Various Artist - Presenting...The Great Blues Singers
DYEAR=2002
DGENRE=Blues
TTITLE0=Texas Alexander - Work Ox Blues
TTITLE1=Texas Alexander - The Risin' Sun
TTITLE2=Josh White - Careless Love
TTITLE3=Josh White - Outskirts of Town
TTITLE4=Josh White - Hard Time Blues
TTITLE5=Josh White - Strange Fruit
TTITLE6=Huddie Ledbetter - Good Morning Blues
TTITLE7=Huddie Ledbetter - Rock Island Line
TTITLE8=Huddie Ledbetter - Goodnight, Irene
TTITLE9=Huddie Ledbetter - On A Christmas Day
TTITLE10=Lena Horne - Stormy Weather
TTITLE11=Lee Wiley - A Woman Alone With The Blues
TTITLE12=Jimmy Rushing - Jimmy's Blues
TTITLE13=Jimmy Rushing - Don't Cry, Baby
TTITLE14=Bessie Smith - Nobody Knows You When You're Down And Out
TTITLE15=Bessie Smith - I'm Wild About That Thing
TTITLE16=Bessie Smith - Gimme A Pigfoot (And A Bottle Of Beer)
TTITLE17=Billie Holiday - I Love My Man (Billie's Blues)
TTITLE18=Billie Holiday - Am I Blue?
TTITLE19=Billie Holiday - Gloomy Sunday
TTITLE20=Billie Holiday - Me, Myself And I
TTITLE21=Maxine Sullivan - My Blue Heaven
TTITLE22=Maxine Sullivan - Kentucky Babe
EXTD=
EXTT0=
EXTT1=
EXTT2=
EXTT3=
EXTT4=
EXTT5=
EXTT6=
EXTT7=
EXTT8=
EXTT9=
EXTT10=
EXTT11=
EXTT12=
EXTT13=
EXTT14=
EXTT15=
EXTT16=
EXTT17=
EXTT18=
EXTT19=
EXTT20=
EXTT21=
EXTT22=
PLAYORDER=
